<?xml version="1.0" standalone="no"?><svg width="200.000" height="130.000" viewBox="0.0 0.0 200.000 130.000">
  <title>Relay-IEC</title>
  <desc>Relay-IEC symbol</desc>
<path d="M16.84 49.63L83.23 49.63L83.23 82.83L16.84 82.83L16.84 49.63"
fill="none" stroke="black" stroke-width="1.5"/>
<path d="M50.03 16.44L50.03 49.63"
fill="none" stroke="black" stroke-width="1.5"/>
<path d="M50.03 82.83L50.03 116.02"
fill="none" stroke="black" stroke-width="1.5"/>
<path d="M83.23 66.23L91.53 66.23"
fill="none" stroke="black" stroke-width="1.5"/>
<path d="M99.83 66.23L108.13 66.23"
fill="none" stroke="black" stroke-width="1.5"/>
<path d="M116.43 66.23L124.73 66.23"
fill="none" stroke="black" stroke-width="1.5"/>
<path d="M133.02 116.02L133.02 91.13"
fill="none" stroke="black" stroke-width="1.5"/>
<path d="M133.02 91.13L149.62 41.33"
fill="none" stroke="black" stroke-width="1.5"/>
<path d="M133.02 49.63L152.94 49.63"
fill="none" stroke="black" stroke-width="1.5"/>
<path d="M133.02 49.63L133.02 16.44"
fill="none" stroke="black" stroke-width="1.5"/>
<path d="M166.22 49.63L166.22 16.44"
fill="none" stroke="black" stroke-width="1.5"/>
<path d="M133.02 66.23L141.32 66.23"
fill="none" stroke="black" stroke-width="1.5"/>
<path d="M46.71 109.4L38.42 106.21 38.42 105.03 46.71 101.64 46.71 102.89 44.2 103.86 44.2 107.33 46.71 108.24 46.71 109.4Z
M43.3 107.02L43.3 104.2 41.01 105.07 40.49 105.26 39.63 105.55 39.29 105.65 39.69 105.74 40.48 105.96 40.88 106.1 43.3 107.02Z"
fill-rule="evenodd" fill="black"/>
<path d="M45.74 95.83L46.71 95.83 46.71 101.31 46.53 101.31 46.18 101.26 46.01 101.19 45.73 101.09 45.17 100.75 44.9 100.52 44.63 100.29 44 99.62 43.65 99.19 43.09 98.52 42.21 97.6 41.89 97.36 41.57 97.13 40.95 96.89 40.66 96.89 40.36 96.89 39.85 97.1 39.64 97.32 39.44 97.54 39.23 98.1 39.23 98.45 39.23 98.82 39.45 99.4 39.67 99.63 39.89 99.85 40.5 100.07 40.89 100.07 40.78 101.12 40.2 101.06 39.3 100.66 39 100.31 38.69 99.96 38.38 99.02 38.38 98.43 38.38 97.83 38.71 96.88 39.04 96.54 39.38 96.19 40.2 95.84 40.69 95.84 40.94 95.84 41.43 95.94 41.67 96.04 41.91 96.15 42.41 96.48 42.68 96.72 42.95 96.96 43.68 97.74 44.14 98.29 44.52 98.75 45.05 99.33 45.18 99.46 45.32 99.59 45.6 99.81 45.74 99.9 45.74 95.83Z"
fill-rule="evenodd" fill="black"/>
<path d="M129.7 105.07L129.7 106.09 123.21 106.09 123.39 106.27 123.74 106.75 123.91 107.05 124.09 107.35 124.35 107.89 124.44 108.12 123.46 108.12 123.25 107.7 122.77 106.95 122.48 106.63 122.2 106.31 121.64 105.86 121.37 105.73 121.37 105.07 129.7 105.07Z"
fill-rule="evenodd" fill="black"/>
<path d="M129.7 98.63L129.7 99.65 123.21 99.65 123.39 99.83 123.74 100.31 123.91 100.61 124.09 100.91 124.35 101.45 124.44 101.68 123.46 101.68 123.25 101.26 122.77 100.51 122.48 100.19 122.2 99.87 121.64 99.42 121.37 99.29 121.37 98.63 129.7 98.63Z"
fill-rule="evenodd" fill="black"/>
<path d="M46.71 37.27L38.42 34.08 38.42 32.9 46.71 29.52 46.71 30.77 44.2 31.73 44.2 35.2 46.71 36.11 46.71 37.27Z
M43.3 34.89L43.3 32.07 41.01 32.94 40.49 33.13 39.63 33.43 39.29 33.52 39.69 33.61 40.48 33.83 40.88 33.97 43.3 34.89Z"
fill-rule="evenodd" fill="black"/>
<path d="M46.71 25.21L46.71 26.23 40.22 26.23 40.4 26.42 40.75 26.9 40.92 27.2 41.1 27.5 41.36 28.03 41.45 28.27 40.47 28.27 40.26 27.84 39.78 27.09 39.49 26.78 39.21 26.46 38.65 26 38.38 25.87 38.38 25.21 46.71 25.21Z"
fill-rule="evenodd" fill="black"/>
<path d="M129.7 31.65L129.7 32.68 123.21 32.68 123.39 32.86 123.74 33.34 123.91 33.64 124.09 33.94 124.35 34.47 124.44 34.71 123.46 34.71 123.25 34.28 122.77 33.54 122.48 33.22 122.2 32.9 121.64 32.45 121.37 32.31 121.37 31.65 129.7 31.65Z"
fill-rule="evenodd" fill="black"/>
<path d="M128.73 23.7L129.7 23.7 129.7 29.18 129.52 29.19 129.17 29.13 129 29.06 128.72 28.96 128.16 28.62 127.89 28.39 127.62 28.16 126.99 27.5 126.64 27.06 126.08 26.39 125.2 25.48 124.88 25.24 124.56 25 123.94 24.76 123.65 24.76 123.35 24.76 122.84 24.97 122.63 25.19 122.43 25.41 122.22 25.97 122.22 26.32 122.22 26.69 122.44 27.28 122.66 27.5 122.88 27.72 123.49 27.94 123.88 27.95 123.77 28.99 123.19 28.94 122.29 28.53 121.99 28.18 121.68 27.83 121.37 26.89 121.37 26.3 121.37 25.7 121.7 24.76 122.03 24.41 122.37 24.06 123.19 23.71 123.68 23.71 123.93 23.71 124.42 23.81 124.66 23.92 124.9 24.02 125.4 24.36 125.67 24.59 125.94 24.83 126.67 25.61 127.13 26.16 127.51 26.62 128.04 27.21 128.17 27.34 128.31 27.47 128.59 27.68 128.73 27.77 128.73 23.7Z"
fill-rule="evenodd" fill="black"/>
<path d="M162.9 31.65L162.9 32.68 156.41 32.68 156.58 32.86 156.93 33.34 157.11 33.64 157.29 33.94 157.55 34.47 157.64 34.71 156.65 34.71 156.45 34.28 155.96 33.54 155.68 33.22 155.39 32.9 154.84 32.45 154.57 32.31 154.57 31.65 162.9 31.65Z"
fill-rule="evenodd" fill="black"/>
<path d="M162.9 25.79L160.92 25.79 160.92 29.38 159.99 29.38 154.61 25.6 154.61 24.77 159.99 24.77 159.99 23.65 160.92 23.65 160.92 24.77 162.9 24.77 162.9 25.79Z
M159.99 25.79L156.25 25.79 159.99 28.38 159.99 25.79Z"
fill-rule="evenodd" fill="black"/>
</svg>
